<?xml version="1.0" encoding="UTF-8" standalone="no"?>
<svg
   xmlns:dc="http://purl.org/dc/elements/1.1/"
   xmlns:cc="http://creativecommons.org/ns#"
   xmlns:rdf="http://www.w3.org/1999/02/22-rdf-syntax-ns#"
   xmlns:svg="http://www.w3.org/2000/svg"
   xmlns="http://www.w3.org/2000/svg"
   id="svg82"
   viewBox="0 0 287.99993 331.19971"
   version="1.1"
   width="360"
   height="414">
  <defs
     id="defs54">
    <clipPath
       clipPathUnits="userSpaceOnUse"
       id="clipPath3063">
      <rect
         id="rect51"
         fill="#000080"
         x="0.00000172438"
         y="32.2825"
         width="360.008"
         height="405.032"
         fill-rule="evenodd" />
    </clipPath>
  </defs>
  <metadata
     id="metadata56">
    <rdf:RDF>
      <cc:Work
         rdf:about="">
        <dc:format>image/svg+xml</dc:format>
        <dc:type
           rdf:resource="http://purl.org/dc/dcmitype/StillImage" />
        <dc:title></dc:title>
      </cc:Work>
    </rdf:RDF>
  </metadata>
  <g
     id="g80"
     clip-path="url(#clipPath3063)"
     transform="matrix(0.3,0,0,0.2,200,200)">
    <g
       id="g74"
       clip-path="none"
       transform="matrix(0,0.4,0.4,0,-200,-2000)">
      <g
         id="g72"
         transform="matrix(1,0,0,1,6000,600)"
         fill="#000000">
        <path
           id="path62"
           d="m 300,600 c 0,0 100,0 100,0 0,0 0,0 0,0 0,0 0,0 0,0 0,0 0,0 -100,0 0,0 0,0 0,0 0,0 0,0 0,0 0,0 0,0 0,0 0,0 0,0 0,0 0,0 0,0 0,0 0,0 0,0 0,0 0,0 0,0 0,0 0,0 0,0 0,0 m 0,0 c 0,0 0,0 0,0 100,0 100,0 100,0 0,0 0,0 0,0 0,0 0,0 -100,0 z" />
        <path
           id="path64"
           d="m 400,600 c 0,0 100,0 100,0 0,0 0,0 0,0 -100,0 -100,0 -100,0 z" />
        <path
           id="path66"
           d="m 500,600 c 0,0 0,0 0,0 0,0 0,0 0,0 0,0 0,0 0,0 z" />
        <path
           id="path68"
           d="m 600,600 c 0,0 100,0 100,0 0,0 0,0 0,0 0,0 0,0 0,0 0,0 0,0 0,0 0,0 0,0 0,0 0,0 0,0 0,0 0,0 0,0 0,0 -100,0 -100,0 -100,0 0,0 0,0 100,0 0,0 0,0 0,0 0,0 -100,0 -100,0 0,0 0,0 0,0 z" />
        <path
           id="path70"
           d="m 700,600 c 0,0 100,0 100,0 h 0 l 0,0 c 0,0 0,0 0,0 0,0 0,0 0,0 0,0 0,0 0,0 0,0 0,0 0,0 0,0 0,0 0,0 0,0 0,0 0,0 0,0 0,0 0,0 -100,0 -100,0 -100,0 l 0,0 c 0,0 0,0 100,0 0,0 0,0 0,0 -100,0 -100,0 -100,0 z" />
      </g>
    </g>
    <path
       id="path76"
       clip-path="none"
       d="m 300,400 c 0,0 100,0 100,0 l 0,0 H 300 l 0,0"
       fill="#000000" />
    <path
       id="path78"
       clip-path="none"
       d="m 30,400 c -10,0 -26,0 -26,0 l 0,0 h 16 l 10,0"
       fill="#000000" />
  </g>
  <rect
     y="40"
     x="3e+01"
     height="200"
     width="240"
     id="rect23"
     style="fill:#550000;stroke-width:1.6" />
  <rect
     style="fill:#a0892c;stroke-width:2.01776"
     id="rect27-2"
     width="20"
     height="200"
     x="2e+02"
     y="40" />
  <rect
     style="fill:#a0892c;stroke-width:1.87563"
     id="rect27-6"
     width="20"
     height="200"
     x="60"
     y="40" />
</svg>
