<svg xmlns="http://www.w3.org/2000/svg" xmlns:xlink="http://www.w3.org/1999/xlink" viewBox="0 0 54.3 226.4">
  <defs>
    <style>
      .cls-1 {
        fill: url(#linear-gradient);
      }

      .cls-10, .cls-11, .cls-12, .cls-13, .cls-15, .cls-16, .cls-2, .cls-20, .cls-3 {
        stroke: #000;
      }

      .cls-2 {
        stroke-miterlimit: 20.9;
        stroke-width: 1.89px;
        fill: url(#linear-gradient-2);
      }

      .cls-11, .cls-12, .cls-20, .cls-3 {
        stroke-miterlimit: 10;
      }

      .cls-3 {
        stroke-width: 0px;
        fill: url(#linear-gradient-3);
      }

      .cls-4 {
        fill: url(#linear-gradient-4);
      }

      .cls-5 {
        fill: url(#linear-gradient-5);
      }

      .cls-6 {
        fill: #fcffff;
        fill-opacity: 0.63;
      }

      .cls-7 {
        fill: url(#linear-gradient-6);
      }

      .cls-8 {
        fill: url(#linear-gradient-7);
      }

      .cls-9 {
        fill: url(#linear-gradient-8);
      }

      .cls-10 {
        fill: url(#linear-gradient-9);
      }

      .cls-11, .cls-12 {
        fill: none;
      }

      .cls-11, .cls-20 {
        stroke-width: 0px;
      }

      .cls-12 {
        stroke-width: 0px;
      }

      .cls-13 {
        fill: #a5dfc9;
      }

      .cls-14 {
        fill: url(#linear-gradient-10);
      }

      .cls-15 {
        fill: url(#linear-gradient-11);
      }

      .cls-16 {
        stroke-width: 1.2px;
        fill: url(#radial-gradient);
      }

      .cls-17 {
        fill: url(#linear-gradient-12);
      }

      .cls-18 {
        fill: url(#linear-gradient-13);
      }

      .cls-19 {
        fill: url(#linear-gradient-14);
      }

      .cls-20 {
        fill: url(#linear-gradient-15);
      }

      .cls-21 {
        fill: url(#linear-gradient-16);
      }

      .cls-22 {
        fill: url(#linear-gradient-17);
      }

      .cls-23 {
        font-size: 18px;
        fill: #fcfcfc;
        font-family: KristenITC-Regular, Kristen ITC;
      }
    </style>
    <linearGradient id="linear-gradient" x1="-1.19" y1="171.06" x2="54.09" y2="171.06" gradientTransform="matrix(1, 0, 0, -1, 0.78, 284.26)" gradientUnits="userSpaceOnUse">
      <stop offset="0" stop-color="#090f4f"/>
      <stop offset="0.28" stop-color="#0d1670"/>
      <stop offset="0.83" stop-color="#0d1670"/>
      <stop offset="1" stop-color="#070c3c"/>
    </linearGradient>
    <linearGradient id="linear-gradient-2" x1="4403.91" y1="1158.75" x2="4461.85" y2="1158.75" gradientTransform="matrix(0.2, 0.1, 0.1, -0.2, -961.21, -25.73)" gradientUnits="userSpaceOnUse">
      <stop offset="0" stop-color="#fdffc2" stop-opacity="0.58"/>
      <stop offset="0.42" stop-color="#babf2d" stop-opacity="0.32"/>
      <stop offset="1" stop-color="#e5ef07" stop-opacity="0"/>
    </linearGradient>
    <linearGradient id="linear-gradient-3" x1="19.85" y1="199.83" x2="38.02" y2="199.83" gradientTransform="matrix(0, 0, 0, 0, -1023.94, -114.18)" gradientUnits="userSpaceOnUse">
      <stop offset="0" stop-color="#e5ffff"/>
      <stop offset="0.3" stop-color="#00609e" stop-opacity="0.5"/>
      <stop offset="1" stop-color="#00609e" stop-opacity="0"/>
    </linearGradient>
    <linearGradient id="linear-gradient-4" x1="107.42" y1="-15992.62" x2="107.52" y2="-16003.14" gradientTransform="matrix(0, 0, 0, 0, -1022.64, -113.16)" gradientUnits="userSpaceOnUse">
      <stop offset="0" stop-color="#fff" stop-opacity="0.57"/>
      <stop offset="1" stop-color="#fff" stop-opacity="0"/>
    </linearGradient>
    <linearGradient id="linear-gradient-5" x1="-345.9" y1="561.34" x2="-343.44" y2="561.45" gradientTransform="matrix(0, 0, 0, 0, -1014.85, -114.23)" xlink:href="#linear-gradient-4"/>
    <linearGradient id="linear-gradient-6" x1="15037.14" y1="-4969.82" x2="15084.14" y2="-4969.82" gradientTransform="matrix(0.07, 0, 0, -0.07, -1002.95, -144.73)" xlink:href="#linear-gradient-3"/>
    <linearGradient id="linear-gradient-7" x1="17112.58" y1="-6326.86" x2="17335.46" y2="-6326.86" gradientTransform="matrix(0.06, 0, 0, -0.05, -1012.95, -139.97)" xlink:href="#linear-gradient-4"/>
    <linearGradient id="linear-gradient-8" x1="17112.58" y1="-6326.68" x2="17335.46" y2="-6326.68" gradientTransform="matrix(0.06, 0, 0, -0.05, -1013.87, -140.06)" xlink:href="#linear-gradient-4"/>
    <linearGradient id="linear-gradient-9" x1="14943.5" y1="-5779.75" x2="15166.38" y2="-5779.75" gradientTransform="matrix(0.07, 0, 0, -0.06, -1007.44, -141.38)" xlink:href="#linear-gradient-3"/>
    <linearGradient id="linear-gradient-10" x1="15083" y1="-896.1" x2="15163.21" y2="-896.1" gradientTransform="matrix(0.07, 0, 0, -0.27, -987.31, -52.96)" xlink:href="#linear-gradient-3"/>
    <linearGradient id="linear-gradient-11" x1="28140.63" y1="-6266.53" x2="28291.19" y2="-6266.53" gradientTransform="matrix(0.04, 0, 0, -0.05, -1010.49, -126.49)" xlink:href="#linear-gradient-3"/>
    <radialGradient id="radial-gradient" cx="4998.6" cy="1652.24" r="121.13" gradientTransform="matrix(0.17, 0.09, 0.07, -0.13, -931.72, -33.48)" gradientUnits="userSpaceOnUse">
      <stop offset="0" stop-color="#5aadd2"/>
      <stop offset="1" stop-color="#fcffff" stop-opacity="0"/>
    </radialGradient>
    <linearGradient id="linear-gradient-12" x1="12346.08" y1="-9870.54" x2="12367.81" y2="-9909.95" gradientTransform="matrix(0.06, -0.02, -0.02, -0.06, -986.24, -138.56)" gradientUnits="userSpaceOnUse">
      <stop offset="0" stop-color="#fcffff"/>
      <stop offset="1" stop-color="#fcffff" stop-opacity="0"/>
    </linearGradient>
    <linearGradient id="linear-gradient-13" x1="13752.61" y1="-9787.26" x2="13753.11" y2="-9841.3" gradientTransform="matrix(0.07, 0, 0, -0.03, -962.94, -135.42)" xlink:href="#linear-gradient-4"/>
    <linearGradient id="linear-gradient-14" x1="12924.7" y1="-9430.35" x2="12919.19" y2="-9379.07" gradientTransform="matrix(0.06, -0.02, -0.02, -0.06, -989.13, -133.21)" xlink:href="#linear-gradient-12"/>
    <linearGradient id="linear-gradient-15" x1="-162.7" y1="206.97" x2="-152.88" y2="206.97" gradientTransform="matrix(0, 0, 0, 0, -1057.82, -142.37)" xlink:href="#linear-gradient-3"/>
    <linearGradient id="linear-gradient-16" x1="177.22" y1="-15915.55" x2="177.24" y2="-15916.48" gradientTransform="matrix(0, 0, 0, 0, -1038.89, -120.97)" xlink:href="#linear-gradient-4"/>
    <linearGradient id="linear-gradient-17" x1="-159.4" y1="201.46" x2="-151.31" y2="201.46" gradientTransform="matrix(0, 0, 0, 0, -1033.84, -133.34)" xlink:href="#linear-gradient-4"/>
  </defs>
  <g id="Layer_2" data-name="Layer 2">
    <g id="svg2">
      <g id="Top_mid_blue">
        <path id="path2997" class="cls-1" d="M1.6,0H54.3V226.4H0Z"/>
        <g id="g6610">
          <path id="path2198" class="cls-2" d="M26.82,199h0L20.47,211h0a1.92,1.92,0,0,0,1.1,2.74,1.92,1.92,0,0,0,2.58-.79h0l6.35-12h0s-.25.46-.55.3l-.77-.41c.08-.15-.07-.23-.22-.32s-.16-.08-.39,0l-1.69-.9c-.23.07-.14-.47-.06-.62Z"/>
          <g id="g2347">
            <path id="rect1306" class="cls-3" d="M33.86,185.38a.26.26,0,0,0-.28,0h0v0h0L20.16,210.61v0s0,0,0,0h0l-.07.12A2.51,2.51,0,0,0,24.59,213h0v0L38,187.74h0v0c0-.08-.07-.17-.18-.23l-4-2.11s0,0,0,0Z"/>
            <path id="rect2233" class="cls-4" d="M32.65,188.65h0c.25.13-.51,2-1.69,4.26l-6.15,11.57c-1.18,2.22-2.33,3.92-2.58,3.79h0c-.25-.13.51-2,1.7-4.26l6.14-11.57C31.25,190.22,32.41,188.52,32.65,188.65Z"/>
            <path id="rect2243" class="cls-5" d="M21.88,210h0c.68.05,1.21.89,1.18,1.87h0c0,1-.61,1.72-1.29,1.67h0c-.68-.06-1.2-.89-1.18-1.87h0C20.63,210.64,21.21,209.9,21.88,210Z"/>
          </g>
          <path id="path2247" class="cls-6" d="M23.92,209.64a.38.38,0,0,1-.47.14.34.34,0,0,1,.32-.61.37.37,0,0,1,.15.47"/>
          <path id="path2249" class="cls-6" d="M24.1,208.56a.35.35,0,1,1-.61-.33.36.36,0,0,1,.47-.14.38.38,0,0,1,.14.47"/>
          <path id="path2251" class="cls-6" d="M24.79,208.73a.35.35,0,0,1-.61-.33.38.38,0,0,1,.47-.14c.15.08.31.16.14.47"/>
          <path id="path2253" class="cls-6" d="M25.31,206.64c-.08.16-.4.38-.55.3s-.38-.4-.3-.55.4-.38.56-.3c.38,0,.45.25.29.55"/>
          <path id="path2255" class="cls-6" d="M26.33,206.2a.37.37,0,0,1-.47.15.38.38,0,0,1-.14-.47.34.34,0,1,1,.61.32"/>
          <path id="path2259" class="cls-6" d="M26.7,204a.38.38,0,0,1-.47.14.37.37,0,0,1-.15-.47.38.38,0,0,1,.47-.14c.07.24.23.32.15.47"/>
          <path id="path2261" class="cls-6" d="M27.18,203.12a.36.36,0,0,1-.46.14.37.37,0,0,1-.15-.47.38.38,0,0,1,.47-.14.37.37,0,0,1,.14.47"/>
          <path id="path2263" class="cls-6" d="M27.06,201.88a.35.35,0,1,1-.61-.33.36.36,0,0,1,.47-.14.38.38,0,0,1,.14.47"/>
          <path id="path2265" class="cls-6" d="M27.73,203.21c-.09.15-.09.15-.24.07s-.15-.08-.07-.23.08-.15.23-.07a.16.16,0,0,1,.08.23"/>
          <path id="path2267" class="cls-6" d="M26.78,203.89c-.08.15-.08.15-.24.07s-.15-.08-.07-.24.08-.15.24-.07c.23-.07.15.08.07.24"/>
          <path id="path2269" class="cls-6" d="M26,202.47a.18.18,0,0,1-.24.07.17.17,0,0,1-.07-.23.18.18,0,0,1,.24-.08c.15.09.15.09.07.24"/>
          <path id="path2271" class="cls-6" d="M25.25,206c-.08.16-.08.16-.23.07s-.16-.08-.08-.23.08-.15.24-.07.15.08.07.23"/>
          <path id="path2273" class="cls-6" d="M25.3,207c-.08.16-.08.16-.23.07s-.16-.08-.07-.23.08-.15.23-.07a.17.17,0,0,1,.07.23"/>
          <path id="path2275" class="cls-6" d="M24.61,206.86a.18.18,0,0,1-.24.07.17.17,0,0,1-.07-.23.17.17,0,0,1,.24-.07c.08-.16.15.08.07.23"/>
          <path id="path2277" class="cls-6" d="M24.11,208.17h0c-.23.07-.39,0-.31-.17a.24.24,0,0,1,.31.17h0"/>
          <path id="path2279" class="cls-6" d="M23.29,210.09a.56.56,0,0,1-.71.21.54.54,0,0,1-.21-.7.55.55,0,0,1,.7-.22.81.81,0,0,1,.22.71"/>
          <path id="path2319" class="cls-6" d="M25.2,205a.35.35,0,1,1-.15-.47c.08.24.23.32.15.47"/>
          <path id="path2321" class="cls-6" d="M25.67,204.87c-.08.15-.08.15-.24.07s-.15-.08-.07-.23.08-.16.23-.08c.09-.15,0,0,.08.24"/>
          <path id="path2323" class="cls-6" d="M26.83,204.9a.6.6,0,0,1-.32.22l-.22-.31a.58.58,0,0,1,.32-.23c.23-.07.3.16.22.32"/>
          <path id="path2325" class="cls-6" d="M28,203c-.08.15-.4.37-.55.29s-.38-.39-.3-.55.4-.38.56-.29.37.39.29.55"/>
          <path id="path2327" class="cls-6" d="M22.56,211.08c-.08.15-.08.15-.23.07s-.15-.08-.07-.23.08-.16.23-.08a.18.18,0,0,1,.07.24"/>
          <path id="path2329" class="cls-6" d="M23.5,210.79a.57.57,0,0,1-.31.23L23,210.7a.6.6,0,0,1,.32-.22c.23-.08.3.16.22.31"/>
          <path id="path2331" class="cls-6" d="M24.06,207.16a.38.38,0,0,1-.47.14.37.37,0,0,1-.15-.47.38.38,0,0,1,.47-.14s.08.23.15.47"/>
          <path id="path2333" class="cls-6" d="M25.24,203.46a.18.18,0,0,1-.24.07.17.17,0,0,1-.07-.23.16.16,0,0,1,.23-.07.16.16,0,0,1,.08.23"/>
          <path id="path2335" class="cls-6" d="M29.08,201.77c-.08.15-.08.15-.23.07s-.16-.08-.08-.23.09-.16.24-.07a.17.17,0,0,1,.07.23"/>
          <path id="path2337" class="cls-6" d="M27.86,201.12a.38.38,0,0,1-.47.14.37.37,0,0,1-.15-.47.38.38,0,0,1,.47-.14.38.38,0,0,1,.15.47"/>
          <path id="path2339" class="cls-6" d="M29,201.15a.38.38,0,0,1-.47.14.37.37,0,0,1-.14-.47.38.38,0,0,1,.47-.14c.15.08.3.16.14.47"/>
          <path id="path2347" class="cls-6" d="M22.08,211.61a.34.34,0,0,1-.61-.32.37.37,0,0,1,.47-.15.37.37,0,0,1,.14.47"/>
          <path id="path2353" class="cls-6" d="M22.35,213.33c-.23.07-.46-.25-.53-.48s.25-.46.48-.54.46.25.53.48a.44.44,0,0,1-.48.54v0Z"/>
          <path id="path2355" class="cls-6" d="M22.83,212.79c-.23.08-.46-.24-.53-.48s.24-.46.48-.53.46.25.53.48c0,.39-.24.46-.48.53l.09-.54Z"/>
          <path id="path2357" class="cls-6" d="M21.52,212.3l-.3-.17.16-.3.31.16-.17.31-.07-.24Z"/>
        </g>
        <g id="g6708">
          <path id="rect3331" class="cls-7" d="M18.87,189.75h0c.9,0,1.6,1.2,1.6,2.7h0c0,1.5-.7,2.7-1.6,2.7h0c-.9,0-1.6-1.2-1.6-2.7h0C17.27,191,18,189.75,18.87,189.75Z"/>
          <path id="path3352" class="cls-8" d="M17.87,195.55h0c-.9.2-4.7,9.7-4.7,10.6v.8a1.58,1.58,0,0,0,1.6,1.6h9.3a1.58,1.58,0,0,0,1.6-1.6v-.8c0-.9-3.8-10.5-4.7-10.5h0l-3.1-.1Z"/>
          <path id="path3361" class="cls-9" d="M17,195.45h0c-.9.2-4.7,9.7-4.7,10.6v.8a1.58,1.58,0,0,0,1.6,1.6h9.3a1.58,1.58,0,0,0,1.6-1.6v-.8c0-.9-3.8-10.5-4.7-10.5h0l-3.1-.1Z"/>
          <path id="rect3293" class="cls-10" d="M17.17,189.25a.27.27,0,0,0-.3.3h0a.22.22,0,0,0,.2.2v4.8c-1,.2-5.3,10.5-5.3,11.5v.8a1.79,1.79,0,0,0,1.8,1.8h10.6a1.79,1.79,0,0,0,1.8-1.8V206c0-1-4.3-11.5-5.3-11.5h0v-4.8c.1,0,.2-.1.2-.3h0c0-.2-.2-.3-.4-.3h-3.1l-.2.2Z"/>
          <g id="g3438">
            <path id="path3388" class="cls-11" d="M17.36,202.52h2.5"/>
            <path id="path3390" class="cls-11" d="M17.36,205.9h2.5"/>
            <path id="path3392" class="cls-12" d="M18,205.25h1.22"/>
            <path id="path3394" class="cls-12" d="M18,204.55h1.22"/>
            <path id="path3396" class="cls-12" d="M18,203.85h1.22"/>
            <path id="path3398" class="cls-12" d="M18,203.17h1.22"/>
            <path id="path3400" class="cls-11" d="M17.36,199.11h2.5"/>
            <path id="path3402" class="cls-12" d="M18,201.83h1.22"/>
            <path id="path3404" class="cls-12" d="M18,201.15h1.22"/>
            <path id="path3406" class="cls-12" d="M18,200.44h1.22"/>
            <path id="path3408" class="cls-12" d="M18,199.76h1.22"/>
          </g>
        </g>
        <g id="g6686">
          <path id="path2352" class="cls-13" d="M29.46,201.31a7.22,7.22,0,0,0,.9,2,9.83,9.83,0,0,0,12.9,3.4h0a9,9,0,0,0,4.4-5.4Z"/>
          <path id="rect2329" class="cls-14" d="M38.76,180.91h0c1.5,0,2.7,2,2.7,4.4h0c0,2.5-1.2,4.4-2.7,4.4h0c-1.5,0-2.7-2-2.7-4.4h0C36,182.81,37.26,180.91,38.76,180.91Z"/>
          <path id="rect2236" class="cls-15" d="M38.66,188.81l2.6.3c.1,0,.2.2.2,0v-8.2h.1c.1,0,.2-.2.2-.4v-.1c0-.2-.1-.4-.2-.4h-5.9c-.1,0-.2.2-.2.4v.1c0,.2.1.4.2.4h.1V189c0,.2.1,0,.2,0"/>
          <path id="path2270" class="cls-16" d="M43.56,206.71a10.35,10.35,0,0,1-13.7-3.6,9.45,9.45,0,0,1,3.8-13.1,10.35,10.35,0,0,1,13.7,3.6,9.34,9.34,0,0,1-3.8,13.1"/>
          <path id="path2291" class="cls-17" d="M38.66,192a8.63,8.63,0,0,1-5.7,1.5c-1.4-.4-1.1-1.6.6-2.8a8.63,8.63,0,0,1,5.7-1.5c1.5.4,1.2,1.7-.6,2.8"/>
          <path id="rect2301" class="cls-18" d="M36.66,181h0c.3,0,.5,1.6.5,3.5v2.9c0,1.9-.2,3.5-.5,3.5h0c-.3,0-.5-1.6-.5-3.5v-2.9C36.16,182.61,36.36,181,36.66,181Z"/>
          <path id="path2314" class="cls-19" d="M44.16,205.71c-1.9,1.7-4.9,2-6.7.6s-1.7-3.7.2-5.4,4.9-2,6.7-.6,1.7,3.8-.2,5.4"/>
        </g>
        <g id="g3410">
          <path id="rect1423" class="cls-20" d="M8.07,200.87l-.13,0H7.77c-.21,0-.38.11-.38.24v.61c0,.11.13.21.31.23v10.86c0,.14.17.24.39.24h7.12c.22,0,.39-.11.39-.24v-9.7c-.19-1.25,1.61-1.77,1.61-1.77h0a8.25,8.25,0,0,0-2-.49H8.07Z"/>
          <g id="g2439">
            <path id="path2415" class="cls-11" d="M7.69,207.86h2.5"/>
            <path id="path2417" class="cls-11" d="M7.69,211.24h2.5"/>
            <path id="path2419" class="cls-12" d="M7.69,210.58H8.9"/>
            <path id="path2421" class="cls-12" d="M7.69,209.89H8.9"/>
            <path id="path2423" class="cls-12" d="M7.69,209.19H8.9"/>
            <path id="path2425" class="cls-12" d="M7.69,208.51H8.9"/>
            <path id="path2427" class="cls-11" d="M7.69,204.45h2.49"/>
            <path id="path2431" class="cls-12" d="M7.67,207.17H8.89"/>
            <path id="path2433" class="cls-12" d="M7.67,206.49H8.89"/>
            <path id="path2435" class="cls-12" d="M7.67,205.78H8.89"/>
            <path id="path2437" class="cls-12" d="M7.67,205.1H8.89"/>
          </g>
          <path id="rect1394" class="cls-21" d="M9,202H9c.25,0,.46,1.58.46,3.52v2.86c0,1.95-.21,3.53-.46,3.53H9c-.26,0-.47-1.58-.47-3.53v-2.86C8.55,203.53,8.77,202,9,202Z"/>
          <path id="rect2554" class="cls-22" d="M11.66,201h0c2.23,0,4,.2,4,.46h0c0,.25-1.81.46-4,.46h0c-2.24,0-4-.2-4-.46h0C7.6,201.21,9.42,201,11.66,201Z"/>
        </g>
        <text class="cls-23" transform="translate(32.82 150.2) rotate(-90)">Participation</text>
      </g>
    </g>
  </g>
</svg>
