<svg xmlns="http://www.w3.org/2000/svg" xmlns:xlink="http://www.w3.org/1999/xlink" viewBox="0 0 51.2 229.5">
  <defs>
    <style>
      .cls-1 {
        isolation: isolate;
      }

      .cls-2 {
        fill: url(#linear-gradient);
      }

      .cls-3, .cls-4 {
        fill: none;
      }

      .cls-3, .cls-4, .cls-5 {
        stroke: #000;
      }

      .cls-3, .cls-5 {
        stroke-linecap: round;
        stroke-linejoin: round;
      }

      .cls-3 {
        stroke-width: 0.72px;
      }

      .cls-5 {
        fill: #f30808;
        stroke-width: 1.3px;
      }

      .cls-6 {
        opacity: 0.82;
        mix-blend-mode: multiply;
      }

      .cls-7, .cls-8 {
        font-size: 17px;
        font-family: OpenSans, Open Sans;
      }

      .cls-7 {
        fill: #050505;
      }
    </style>
    <linearGradient id="linear-gradient" x1="-0.59" y1="173.72" x2="51.62" y2="173.72" gradientTransform="matrix(1, 0, 0, -1, 0.01, 288.47)" gradientUnits="userSpaceOnUse">
      <stop offset="0" stop-color="#8c4242"/>
      <stop offset="0.18" stop-color="#c88989"/>
      <stop offset="0.78" stop-color="#c17b7b"/>
      <stop offset="1" stop-color="#8c4242"/>
    </linearGradient>
  </defs>
  <g class="cls-1">
    <g id="Layer_2" data-name="Layer 2">
      <g id="svg2">
        <g id="Top_left_rose">
          <path id="path2991" class="cls-2" d="M4.2.8l47-.8L47.4,229.5,0,228.3Z"/>
          <path id="path3174" class="cls-3" d="M33.2,209.1c0,4.9-3.6,8.9-8.1,8.9s-8.1-4-8.1-8.9,3.6-8.9,8.1-8.9S33.2,204.2,33.2,209.1Z"/>
          <path id="path3176" class="cls-4" d="M19.5,204.1c2.3,1.1,4.5,2.9,5.2,5.4a11.86,11.86,0,0,1,.1,6.2l-.3.6"/>
          <path id="path3178" class="cls-4" d="M29,202.2a8.15,8.15,0,0,0-1.6,6.2c0,1.8-.2,3.7.9,5.3a2,2,0,0,0,1.1,1.3"/>
          <path id="path3180" class="cls-4" d="M17.8,208.2c2.2.5,4.4,1.5,6.8,1.2a4.1,4.1,0,0,0,3.4-.8c.9-.6,2.2-.8,2.7-1.9.3-.4.5-.7.8-1.1"/>
          <rect id="rect3182" class="cls-5" x="5.4" y="188.9" width="37.8" height="5.7"/>
          <g>
            <g class="cls-6">
              <text class="cls-7" transform="translate(31.27 35.68) rotate(91.18)">The Road<tspan x="0" y="17" xml:space="preserve">  to Enlightenment</tspan></text>
            </g>
            <text class="cls-8" transform="translate(32.27 34.68) rotate(91.18)">The Road<tspan x="0" y="17" xml:space="preserve">  to Enlightenment</tspan></text>
          </g>
        </g>
      </g>
    </g>
  </g>
</svg>
