<svg id="Book_half" xmlns="http://www.w3.org/2000/svg" xmlns:xlink="http://www.w3.org/1999/xlink" viewBox="0 0 101 150"><defs><style>.cls-1{fill:#8c7158;}.cls-2{fill:#afaeaf;}.cls-3{fill:#ccc;}.cls-4{fill:#fff;}.cls-5{fill:url(#linear-gradient);}</style><linearGradient id="linear-gradient" x1="-3.83" y1="74.46" x2="5.96" y2="74.46" gradientTransform="matrix(1.12, 0, 0, 1, -0.72, 0)" gradientUnits="userSpaceOnUse"><stop offset="0" stop-color="#fff"/><stop offset="0.19" stop-color="#dcdcdc"/><stop offset="0.52" stop-color="#999"/><stop offset="0.63" stop-color="#b8b8b8"/><stop offset="0.79" stop-color="#dedede"/><stop offset="0.92" stop-color="#f6f6f6"/><stop offset="1" stop-color="#fff"/></linearGradient></defs><path id="front-cover" class="cls-1" d="M2.74,148.64l-96.56,0a4,4,0,0,1-3.84-4l0-139.12a3.93,3.93,0,0,1,3.84-4l96.56,0Z"/><path id="back-cover" class="cls-1" d="M-.56,148.64l96.57,0a4,4,0,0,0,3.84-4l0-139.12a3.93,3.93,0,0,0-3.83-4l-96.57,0Z"/><rect id="page-right-lowest" class="cls-2" x="8.18" y="2.53" width="87.82" height="143.94"/><rect id="page-right-low" class="cls-3" x="6.56" y="2.53" width="87.82" height="143.94"/><rect id="page-right-top" class="cls-4" x="0.72" y="2.62" width="92.06" height="143.76"/><rect id="binding-fold" class="cls-5" x="-5" y="2.57" width="11" height="143.79"/></svg>